<svg xmlns="http://www.w3.org/2000/svg" width="42.011" height="42.011" viewBox="0 0 42.011 42.011">
  <path id="Shape_21" data-name="Shape 21" d="M499.974,7419.823a21.005,21.005,0,1,1,20.993,21A21,21,0,0,1,499.974,7419.823Zm9.569-8.366v16.8a2.686,2.686,0,0,0,2.954,2.988H529.4a2.706,2.706,0,0,0,3-3.025V7411.41a2.688,2.688,0,0,0-3-3H512.566A2.7,2.7,0,0,0,509.542,7411.457Zm11.425,17.184H513.5c-1.049,0-1.348-.288-1.348-1.35,0-2.77.022-5.563-.035-8.333,0-.786.219-.969.958-.947,1.038.094,1.061.047.934,1.05a7.011,7.011,0,1,0,13.851-.53c-.082-.393.022-.473.37-.473,1.58-.116,1.58-.151,1.58,1.477v7.755c-.011,1.063-.3,1.35-1.361,1.35Zm-.045-4.4a4.411,4.411,0,1,1,.082,0Zm4.407-11.021c0-2.239,0-2.239,2.217-2.239,2.261,0,2.261,0,2.261,2.286,0,2.217,0,2.217-2.215,2.217C525.329,7415.485,525.329,7415.485,525.329,7413.222Z" transform="translate(-499.974 -7398.807)" fill="#fff"/>
</svg>
