<svg xmlns="http://www.w3.org/2000/svg" width="42.01" height="42.01" viewBox="0 0 42.01 42.01">
  <path id="Shape_20" data-name="Shape 20" d="M457.974,7398.827a21,21,0,1,0,21.011,21A21,21,0,0,0,457.974,7398.827Zm6.057,11.322a10.83,10.83,0,0,0-2.435-.3,2.1,2.1,0,0,0-1.644.555,2.986,2.986,0,0,0-.5,2.054v1.408h3.963v4.178H459.45v15.846h-5.3v-15.846H451.2v-4.178h2.948v-1.5a10.234,10.234,0,0,1,.531-3.774,4.233,4.233,0,0,1,1.99-2.02,7.453,7.453,0,0,1,3.652-.785,14.84,14.84,0,0,1,4.425.669Z" transform="translate(-436.974 -7398.827)" fill="#fff"/>
</svg>
