<svg xmlns="http://www.w3.org/2000/svg" width="42.01" height="42.01" viewBox="0 0 42.01 42.01">
  <path id="Shape_19" data-name="Shape 19" d="M395.99,7398.808a21.005,21.005,0,1,0,20.994,21.005A21.006,21.006,0,0,0,395.99,7398.808Zm13.434,15.627a.493.493,0,0,0-.236.508,18.061,18.061,0,0,1-4.31,12.119,16.446,16.446,0,0,1-10.341,5.817,17.8,17.8,0,0,1-12.344-2.4.425.425,0,0,0-.139-.081,13.147,13.147,0,0,0,6.475-1.108,11.269,11.269,0,0,0,2.591-1.535,6.3,6.3,0,0,1-5.644-3.97c-.138-.358-.138-.358.26-.323A4.952,4.952,0,0,0,388,7423.3a7.62,7.62,0,0,1-1.483-.554,6.219,6.219,0,0,1-3.353-5.286c-.029-.288.052-.312.306-.185a5.8,5.8,0,0,0,2.447.635,11.144,11.144,0,0,1-1.062-.946,6.315,6.315,0,0,1-.975-7.029c.15-.3.219-.3.439-.035a17.573,17.573,0,0,0,10.8,6.025c.462.069.935.092,1.4.162.294.057.336-.093.29-.335a6.218,6.218,0,0,1,10.409-5.563.6.6,0,0,0,.664.162,12.554,12.554,0,0,0,3.283-1.281,1.706,1.706,0,0,0,.26-.15,6.344,6.344,0,0,1-2.626,3.417,12.391,12.391,0,0,0,3.329-.877c.035.162-.074.254-.138.346A12.329,12.329,0,0,1,409.424,7414.435Z" transform="translate(-374.974 -7398.808)" fill="#fff"/>
</svg>
