<svg xmlns="http://www.w3.org/2000/svg" width="42.01" height="42.009" viewBox="0 0 42.01 42.009">
  <path id="Shape_22" data-name="Shape 22" d="M582.984,7398.845a21,21,0,1,0,21,21.034A21.037,21.037,0,0,0,582.984,7398.845Zm14.47,22.223c-.035.2-.035.346-.058.508-.024.185-.058.346-.082.53-.01.163-.057.324-.08.474-.023.231-.092.416-.138.658-.024.1-.07.23-.092.3-.046.15-.092.313-.128.474-.058.185-.138.416-.242.658a3.178,3.178,0,0,1-.162.509,1.681,1.681,0,0,1-.161.38c-.07.15-.138.312-.208.451-.08.162-.162.312-.23.473a.853.853,0,0,1-.14.232c-.022.08-.068.15-.092.242-.046.069-.08.069-.1.15-.115.185-.219.381-.357.578a2.752,2.752,0,0,1-.278.38,2.9,2.9,0,0,0-.207.358c0,.035-.023.035-.023.035-.024.023-.024.081-.034.081a5.163,5.163,0,0,1-.5.611c-.07,0-.092.08-.138.128a3.044,3.044,0,0,1-.486.53.689.689,0,0,0-.161.2c-.024,0-.035,0-.035.034-.022,0-.022.034-.034,0-.022,0-.068,0-.068.034.022.093-.058.116-.093.162a.737.737,0,0,0-.184.185c-.162.127-.346.278-.508.428a2.247,2.247,0,0,1-.53.427c-.161.116-.323.277-.484.381a2.988,2.988,0,0,1-.369.242c-.046,0-.046.082-.1.082-.046.081-.1.081-.15.115a6.3,6.3,0,0,1-1.016.566c-.368.2-.715.392-1.1.554a6.791,6.791,0,0,0-.682.277c-.207.07-.415.15-.657.22-.058,0-.092.034-.15.034-.276.092-.53.162-.784.243-.324.068-.646.116-.958.2-.265.034-.542.069-.819.116-.276.022-.554.022-.842.022a8.126,8.126,0,0,1-1.05.046h-.092c-.092-.046-.161,0-.254,0h-.046a6.666,6.666,0,0,1-.68-.068,1.641,1.641,0,0,1-.484-.046c-.15,0-.288-.035-.427-.035a2.341,2.341,0,0,1-.416-.092,1.629,1.629,0,0,1-.369-.07c-.093-.035-.208-.035-.324-.068-.184-.046-.358-.116-.554-.15h-.115c-.058-.046-.07-.046-.036-.126,0-.035.012-.035.012-.07.024,0,.046-.046.07-.08.046-.07.115-.163.15-.231.15-.277.311-.543.45-.819a6.818,6.818,0,0,0,.392-.877c.115-.324.242-.589.323-.889a.187.187,0,0,1,.024-.116c.046-.116.068-.242.115-.346a1.727,1.727,0,0,1,.092-.346c.035-.162.07-.359.116-.565.046-.186.116-.382.15-.566a4.274,4.274,0,0,0,.15-.611,3.267,3.267,0,0,0,.162-.542c.022-.082.034-.2.068-.312a3.035,3.035,0,0,1,.081-.312c0-.069.08-.161.057-.231a1.366,1.366,0,0,0,.254.312.447.447,0,0,1,.092.115,5.051,5.051,0,0,0,.97.727c.184.082.323.162.484.244.07.034.173.034.277.069a3.023,3.023,0,0,0,.692.2,1.659,1.659,0,0,1,.508.081c.254,0,.531-.058.785-.058h.058a4.456,4.456,0,0,0,.657-.058c.208-.046.416-.081.624-.128.23-.068.438-.161.646-.23.161-.069.311-.116.461-.2.208-.116.416-.184.624-.3.276-.2.542-.393.784-.577a5.48,5.48,0,0,0,.9-.819,1.539,1.539,0,0,1,.162-.2,1.6,1.6,0,0,0,.208-.266c.012-.046.022-.046.046-.081.024,0,.046,0,.046-.046a4.629,4.629,0,0,0,.312-.4c.011,0,.034-.046.058-.092.046-.1.115-.186.184-.312.046-.024.046-.024.046-.07.058-.126.116-.2.172-.311.012,0,.012-.035.012-.069.116-.2.23-.381.324-.577,0-.058.034-.058.046,0-.012-.058-.046-.058-.046-.082.092-.2.161-.357.23-.542.012,0,.012-.047.012-.047.034,0,.034.047.08.047-.023-.047-.058-.069-.046-.127a4.816,4.816,0,0,0,.208-.692,5.568,5.568,0,0,0,.207-.727,1.172,1.172,0,0,0,.035-.2,1.268,1.268,0,0,1,.034-.2.238.238,0,0,0,.046-.15c0-.034-.022-.034,0-.069h.046c0-.046-.022-.092-.022-.126.022-.07.022-.184.046-.267v-.16a.2.2,0,0,0,.023-.116h.024v-.23a.844.844,0,0,0,.034-.186v-.289c.024-.022.024-.093.024-.15.011-.347.057-.693.034-1.039-.024-.2-.024-.392-.058-.577a6.95,6.95,0,0,0-.1-.819,1.03,1.03,0,0,0-.092-.346.236.236,0,0,0-.022-.116v-.034c.068-.046-.012-.046-.036-.116-.058-.15-.092-.347-.172-.508-.012-.022.022-.069-.046-.115-.024-.036-.024-.116-.046-.15a1.7,1.7,0,0,1-.092-.231c-.116-.231-.232-.461-.346-.7-.162-.232-.324-.508-.486-.727a3.852,3.852,0,0,0-.415-.542,1.978,1.978,0,0,0-.15-.2.157.157,0,0,0-.128-.069c.024-.046,0-.046,0-.081-.138-.15-.276-.266-.438-.416a.647.647,0,0,0-.138-.126,3.536,3.536,0,0,0-.461-.393c-.15-.116-.3-.22-.462-.336s-.37-.23-.531-.346h-.1a4.41,4.41,0,0,0-.831-.427,5.361,5.361,0,0,0-.866-.312c-.254-.08-.507-.16-.761-.242-.242-.022-.5-.1-.738-.138a4.643,4.643,0,0,0-.53-.093h-.174c-.08,0-.15-.034-.22,0a1.325,1.325,0,0,0-.369-.034h-1.269c-.023.034-.035.034-.058.034h-.242c-.046.035-.1,0-.138.035a.083.083,0,0,0-.092,0h-.116a.262.262,0,0,0-.208.058h-.162c-.046,0-.115,0-.138.034-.1,0-.184.036-.254.036h-.115s-.024.046-.046.046h-.07c-.2.022-.392.068-.576.1-.046.046-.092,0-.116.046h-.022c-.024,0-.058.035-.082.035h-.012c-.046,0-.092,0-.115.046h-.046a.251.251,0,0,1-.058.033h-.092c-.288.1-.588.186-.854.313a1.48,1.48,0,0,0-.334.15,4.219,4.219,0,0,0-.462.185c-.161.092-.346.208-.484.277-.034.035-.034.035-.046.035a1.966,1.966,0,0,0-.208.126.871.871,0,0,0-.161.116,6.358,6.358,0,0,0-.832.613,3.564,3.564,0,0,0-.346.276.323.323,0,0,0-.1.116c-.012,0-.036,0-.036.046a1.333,1.333,0,0,0-.276.219.656.656,0,0,1-.162.149c-.069,0-.1.083-.126.116a1.139,1.139,0,0,0-.232.277,5.057,5.057,0,0,1-.4.45c-.058.127-.139.22-.185.324-.034.022-.046.081-.1,0,.057.115-.024.115-.035.184-.046.093-.092.161-.138.242a.048.048,0,0,1-.07.046c-.011-.046-.011,0-.011,0,.034.058,0,.093-.012.15a2.864,2.864,0,0,0-.334.611c-.035.082-.081.15-.128.278-.023.1-.115.23-.138.346a3.862,3.862,0,0,0-.23.7,3.163,3.163,0,0,0-.116.439c-.046.253-.1.439-.126.635-.035.161-.035.265-.058.415a2.5,2.5,0,0,1-.012.509.3.3,0,0,0,0,.15,4.176,4.176,0,0,0,.034.855,3.847,3.847,0,0,0,.093.807c.069.278.115.542.2.82a2.1,2.1,0,0,0,.126.381v.081c.092.2.184.392.276.577a2.854,2.854,0,0,0,.324.578,3.575,3.575,0,0,0,.323.381c.092.126.162.208.242.323.035,0,.058.035.1.082.138.1.288.23.438.334.046.047.082.081.116.081a.5.5,0,0,1,.23.162.544.544,0,0,0,.2.081c.15.07.288.186.474.15a.1.1,0,0,0,.138,0c.276-.046.369-.23.427-.473.034-.138.081-.266.128-.416.034-.115.046-.231.068-.347.046-.127.058-.23.092-.357a.614.614,0,0,0,0-.5,1.038,1.038,0,0,0-.126-.231.291.291,0,0,1-.138-.149,2.221,2.221,0,0,1-.312-.428.317.317,0,0,0-.034-.081h-.012a2.283,2.283,0,0,1-.254-.542c-.023-.034-.023-.082-.046-.082a5.519,5.519,0,0,1-.208-.912,4.97,4.97,0,0,1-.046-1.016c.024-.22.046-.427.07-.624a6.614,6.614,0,0,1,.23-1.119c.092-.312.184-.566.3-.854a7.308,7.308,0,0,1,.531-.958,2.028,2.028,0,0,0,.232-.346c.069-.082.15-.2.23-.312a5.681,5.681,0,0,1,.6-.576,2.839,2.839,0,0,1,.438-.4c.184-.139.369-.254.565-.381a2.148,2.148,0,0,1,.438-.266.146.146,0,0,0,.082-.023c.046,0,.092-.058.161-.091.186-.083.382-.151.578-.232.115-.035.23-.081.357-.115a3.964,3.964,0,0,1,.624-.15c.172-.046.334-.082.473-.116a.593.593,0,0,0,.278-.046,4.318,4.318,0,0,1,.785-.046h.807c.024,0,.046.046.07.046h.116c.115,0,.23.046.345.046.07,0,.116.035.2.035h.15a1.034,1.034,0,0,0,.3.082h.092a.555.555,0,0,0,.278.068.085.085,0,0,0,.092.046c.172.07.323.116.484.186a5.315,5.315,0,0,1,.969.473c.15.1.324.266.474.38a2.159,2.159,0,0,1,.4.38,4.02,4.02,0,0,1,.693.936,2.62,2.62,0,0,1,.242.475,4.584,4.584,0,0,1,.265.761,3.7,3.7,0,0,1,.162.774,8.157,8.157,0,0,1,.058,1.049c0,.267,0,.5-.024.763a6.469,6.469,0,0,1-.115.935v.116a3.267,3.267,0,0,1-.082.346c-.069.357-.138.658-.23,1.016-.058.185-.116.415-.184.61-.092.254-.208.532-.312.821-.046.1-.08.185-.127.289a6.957,6.957,0,0,1-.37.623,7.779,7.779,0,0,1-.508.7c-.138.15-.277.266-.427.417-.126.092-.242.2-.358.289a3.467,3.467,0,0,1-.842.45,4.964,4.964,0,0,1-.831.15,3.329,3.329,0,0,1-.588-.036.294.294,0,0,0-.184-.035.279.279,0,0,1-.162-.034c-.126-.046-.23-.082-.346-.116a4.325,4.325,0,0,1-.484-.358,2.82,2.82,0,0,1-.38-.381c-.034-.116-.116-.2-.127-.266a2.367,2.367,0,0,1-.162-.357,2.806,2.806,0,0,1-.092-.7,3.115,3.115,0,0,1,.138-.693c.046-.266.127-.531.208-.842.034-.116.069-.277.115-.393a4.945,4.945,0,0,0,.185-.577c.046-.15.092-.312.138-.45a1.492,1.492,0,0,1,.08-.323c.08-.232.128-.462.22-.693.068-.277.126-.531.184-.808a5.353,5.353,0,0,0,.08-1.016,2.438,2.438,0,0,0-.15-.773,1.792,1.792,0,0,0-.507-.8.97.97,0,0,0-.278-.207,1.106,1.106,0,0,0-.369-.2,2.194,2.194,0,0,0-.831-.058,1.925,1.925,0,0,0-.992.3,2.183,2.183,0,0,0-.232.161,2.206,2.206,0,0,0-.53.5,2.557,2.557,0,0,0-.288.428,4.089,4.089,0,0,0-.5,1.3,4.68,4.68,0,0,0-.126.785,5.265,5.265,0,0,0,.034.729,5.076,5.076,0,0,0,.092.727,5.4,5.4,0,0,0,.288,1.016c.012,0,.012.045.012.045.046.024.024.1.024.15,0,0-.024,0-.024.034a1.692,1.692,0,0,0-.034.2c0,.036-.024.151-.035.232-.046,0-.022.022-.046.081a1.14,1.14,0,0,1-.046.266.253.253,0,0,0-.022.126v.023a.136.136,0,0,0-.046.114c0,.047-.036.116-.036.163a.2.2,0,0,0-.022.1,2.582,2.582,0,0,0-.092.4c-.012.034-.082.068-.046.1v.046c0,.046-.012.046-.012.068-.024.047-.024.128-.046.163a.3.3,0,0,0-.012.1H578.7v.126c-.022,0-.022,0-.022.035a.2.2,0,0,0-.024.115c0,.035-.058.128-.058.2v.07a.453.453,0,0,1-.034.126c-.022,0-.022.036-.022.082-.046.2-.092.393-.139.577s-.092.381-.138.577c-.034.15-.069.312-.115.462a1.428,1.428,0,0,0-.046.3c-.046.058-.046.127-.07.15-.07.243-.092.473-.162.7-.046.244-.092.44-.138.671-.07.277-.138.53-.208.807-.046.2-.092.428-.15.659a2.388,2.388,0,0,0-.068.392,3.478,3.478,0,0,0-.1.612c-.024.185-.034.416-.058.658-.012.2-.012.462-.012.693a4.366,4.366,0,0,0,0,.542v.266c.012.081-.022.081-.069.081-.116-.081-.232-.114-.346-.185-.208-.092-.392-.2-.634-.312a.926.926,0,0,1-.266-.16,2.284,2.284,0,0,0-.508-.254.732.732,0,0,0-.288-.208c-.1-.081-.219-.116-.288-.231a3.392,3.392,0,0,1-.416-.312c-.161-.1-.323-.231-.484-.347-.184-.162-.369-.312-.577-.5a2.226,2.226,0,0,1-.23-.242c-.07-.07-.162-.1-.232-.2,0-.023-.011-.023-.023-.023h-.034a1,1,0,0,0-.208-.23c-.058-.093-.116-.127-.174-.208a.017.017,0,1,0,0-.034c-.115-.116-.207-.231-.323-.358-.092-.1-.184-.185-.278-.289a.508.508,0,0,0-.08-.126c-.058-.036-.092-.116-.15-.185a2.2,2.2,0,0,1-.23-.312c-.024,0-.046-.046-.046-.081-.012,0-.036-.047-.036-.047a1.224,1.224,0,0,1-.2-.264c-.022,0-.022-.035-.034-.035,0-.047-.012-.047-.034-.082a1.217,1.217,0,0,1-.162-.23,1.193,1.193,0,0,1-.15-.231c0-.046,0-.081-.034-.081-.08-.035-.092-.15-.162-.23-.046-.093-.115-.185-.173-.3-.012-.046-.058-.126-.07-.174,0-.022-.034-.022-.046-.068a2.826,2.826,0,0,0-.219-.37c0-.057,0-.092-.024-.092a.237.237,0,0,1-.046-.126c0-.034-.058-.07-.08-.139-.012,0-.036-.046-.036-.082-.022-.034,0-.08-.034-.08-.034-.081-.08-.184-.126-.267.022-.046,0-.046-.024-.068-.012,0-.012-.046-.012-.046v-.082c-.058-.046-.068-.161-.115-.231,0-.034.011-.034-.035-.034.024-.082.024-.162-.058-.208h-.022c0-.024,0-.024-.024-.024a.4.4,0,0,1-.011-.081c0-.034-.024-.092-.046-.092,0-.035-.036-.1-.036-.15a.162.162,0,0,0-.01-.069.132.132,0,0,1-.024-.068c0-.058,0-.093-.046-.093,0-.036-.023-.036-.023-.069a.215.215,0,0,0-.023-.116c-.012,0-.024-.069-.024-.069a.244.244,0,0,0-.046-.127.794.794,0,0,0-.058-.2c0-.034,0-.081-.011-.081a.292.292,0,0,0-.046-.149.334.334,0,0,0-.024-.15.876.876,0,0,1-.046-.277c0-.07-.046-.1-.046-.15a.226.226,0,0,1-.024-.082.4.4,0,0,0-.011-.081c0-.034-.035-.1-.035-.162v-.057a2.762,2.762,0,0,1-.08-.508.115.115,0,0,0-.024-.07c-.022,0-.022-.045-.022-.092a.09.09,0,0,0,0-.1v-.034c-.012-.046,0-.092-.012-.128s0-.081-.023-.115v-.116l-.023-.035a.561.561,0,0,0,.023-.2h-.023c0-.034,0-.069-.022-.069v-.311a.649.649,0,0,0,0-.208,5.513,5.513,0,0,1-.024-.658v-.1a2.58,2.58,0,0,0,0-.427c0-.1.024-.2.024-.276s.022-.116,0-.15v-.15a.2.2,0,0,0,.022-.092v-.036a.167.167,0,0,0,.023-.1c0-.092,0-.126.023-.15,0-.092.012-.161.012-.242v-.046c.046-.034,0-.068.022-.15a10.7,10.7,0,0,1,.22-1.119,7.58,7.58,0,0,1,.184-.819.489.489,0,0,0,.058-.221c.012-.046,0-.081.058-.081v-.036a1.588,1.588,0,0,1,.138-.427,5.554,5.554,0,0,1,.277-.738,4.036,4.036,0,0,1,.243-.589,6.4,6.4,0,0,1,.311-.611c.07-.15.162-.3.254-.508.092-.15.184-.3.288-.45.1-.2.232-.346.334-.554.128-.2.278-.381.416-.577a.768.768,0,0,0,.138-.185.965.965,0,0,0,.208-.232,6.394,6.394,0,0,1,.438-.506c.126-.151.242-.278.358-.393.2-.186.369-.382.542-.532.15-.115.3-.277.438-.381.2-.208.415-.311.6-.507.23-.162.45-.346.657-.5a.207.207,0,0,0,.15-.094c.22-.138.438-.264.67-.415a2.322,2.322,0,0,0,.369-.2c.208-.115.416-.23.634-.346.15-.081.334-.15.52-.23a1.756,1.756,0,0,1,.461-.185,2.394,2.394,0,0,1,.486-.207,2.587,2.587,0,0,0,.531-.2c.2-.036.392-.1.588-.151s.369-.115.565-.15a3.174,3.174,0,0,0,.554-.116c.162,0,.3-.092.427-.092a.89.89,0,0,0,.312-.035c.07-.023.174,0,.266-.023.334-.047.657-.047.981-.08h1.073a4.915,4.915,0,0,1,.692.033h.116c.2,0,.38.047.6.047.288.058.578.116.866.15.2.034.415.07.6.116.138.035.3.081.438.115.184.035.369.116.588.15a3.273,3.273,0,0,0,.369.116,1.481,1.481,0,0,0,.334.162c.07,0,.07.069.116.034.07,0,.1.035.15.035a2.587,2.587,0,0,1,.438.2,1.144,1.144,0,0,1,.358.162.475.475,0,0,1,.254.116c.161.069.334.15.507.23a.156.156,0,0,0,.116.07c.3.161.6.345.877.5.174.127.346.244.5.358.288.2.588.428.877.658.174.15.382.312.554.461a4.174,4.174,0,0,0,.4.392,4.053,4.053,0,0,0,.369.381c.174.2.324.347.486.543a4.9,4.9,0,0,1,.4.474c.128.149.22.3.312.4.184.289.4.555.577.855.138.23.312.519.462.785.08.15.162.3.23.461.116.22.22.416.312.612a4.478,4.478,0,0,1,.23.623c.046.069.058.162.1.23a1.875,1.875,0,0,1,.184.542,2.682,2.682,0,0,1,.186.59c.034.068.034.139.068.231.092.38.184.8.254,1.189.034.23.07.5.116.773.023.184.046.38.058.576,0,.162,0,.278.01.439.024.346.024.728.024,1.074C597.465,7420.525,597.454,7420.791,597.454,7421.067Z" transform="translate(-561.974 -7398.845)" fill="#fff"/>
</svg>
